# xmcd
#
# Track frame offsets: 
#        150
#        17572
#        33566
#        48201
#        69669
#        85556
#        109009
#        130893
#        143916
#        162695
#        181648
#        197466
#        219329
#        236908
#        255333
#        273287
#        290029
#
# Disc length: 4041 seconds
#
# Revision: 1
# Processed by: cddbd v1.5.2PL0 Copyright (c) Steve Scherf et al.
# Submitted via: ExactAudioCopy v1.3
#
DISCID=ed0fc711
DTITLE=Various Artist - Blues Revue sampler, Aug-Sep 2008
DYEAR=2008
DGENRE=Blues
TTITLE0=Walter "Wolfman" Washington - Crescent City starlights
TTITLE1=John "Juke" Logan - Fan the flames
TTITLE2=Eden Brent - Mississippi flatland blues
TTITLE3=Blues Delight - Slightly hung over
TTITLE4=Fiona Boyes - Two legged dog
TTITLE5=Nothin' But Trouble - $2.69 a gallon
TTITLE6=Tommy McCoy - Put a sweat on you
TTITLE7=Johnny Rawls - Moment of weakness
TTITLE8=Billy Flyinn - Blues drive
TTITLE9=Big Daddy Lee and The Kingbees - The premonition
TTITLE10=Kelly Richey - Leave the blues behind
TTITLE11=Flattop Tom and His Jump Cats - Doin' the do
TTITLE12=Deborah Bonham - Love you so
TTITLE13=Blues Blend - When daylight comes
TTITLE14=Bad News Blues Band - Texas
TTITLE15=The Malchicks - House of the rising Sun
TTITLE16=Moreland and Arbuckle - Never far behind
EXTD=
EXTT0=
EXTT1=
EXTT2=
EXTT3=
EXTT4=
EXTT5=
EXTT6=
EXTT7=
EXTT8=
EXTT9=
EXTT10=
EXTT11=
EXTT12=
EXTT13=
EXTT14=
EXTT15=
EXTT16=
PLAYORDER=
